<svg xmlns="http://www.w3.org/2000/svg" width="1200" height="675" viewBox="0 0 1200 675" role="img" aria-label="Devlog illustration for Fix visual reference for latest cooldown recovery aut...">
  <rect width="1200" height="675" fill="#05070a"/>
  <rect x="44" y="44" width="1112" height="587" fill="#0b1015" stroke="#ff2a6d" stroke-opacity="0.58"/>
  <g opacity="0.18" stroke="#05d9e8" stroke-width="1">
    <path d="M80 120 H1120 M80 210 H1120 M80 300 H1120 M80 390 H1120 M80 480 H1120"/>
    <path d="M160 72 V604 M320 72 V604 M480 72 V604 M640 72 V604 M800 72 V604 M960 72 V604"/>
  </g>
  <path d="M70 424 C 86 210, 541 520, 1120 250" fill="none" stroke="#ff2a6d" stroke-width="6" opacity="0.48"/>
  <polyline points="82,376 86,298 541,341 917,405 1118,292" fill="none" stroke="#05d9e8" stroke-width="3" opacity="0.78"/>
  <rect x="90" y="484" width="34" height="61" fill="#ff2a6d" opacity="0.28"/>
<rect x="158" y="490" width="34" height="55" fill="#05d9e8" opacity="0.28"/>
<rect x="226" y="493" width="34" height="52" fill="#ff2a6d" opacity="0.28"/>
<rect x="294" y="399" width="34" height="146" fill="#05d9e8" opacity="0.28"/>
<rect x="362" y="352" width="34" height="193" fill="#ff2a6d" opacity="0.28"/>
<rect x="430" y="424" width="34" height="121" fill="#05d9e8" opacity="0.28"/>
<rect x="498" y="365" width="34" height="180" fill="#ff2a6d" opacity="0.28"/>
<rect x="566" y="335" width="34" height="210" fill="#05d9e8" opacity="0.28"/>

  <circle cx="980" cy="170" r="86" fill="none" stroke="#ff2a6d" stroke-width="7" opacity="0.42"/>
  <circle cx="980" cy="170" r="34" fill="#05d9e8" opacity="0.24"/>
  <text x="82" y="122" fill="#05d9e8" font-family="ui-monospace, SFMono-Regular, Menlo, monospace" font-size="22" letter-spacing="5">RUN AFTERMATH</text>
  <text x="82" y="210" fill="#e6edf3" font-family="Inter, system-ui, sans-serif" font-size="48" font-weight="700">Fix visual reference for latest cooldown recovery aut...</text>
  <text x="84" y="272" fill="#aeb8c5" font-family="ui-monospace, SFMono-Regular, Menlo, monospace" font-size="20">This slice improves the devlog as a visual artifact, adding screenshots, illu...</text>
  <text x="82" y="588" fill="#ff2a6d" font-family="ui-monospace, SFMono-Regular, Menlo, monospace" font-size="19" letter-spacing="3">fix-visual-reference-for-latest-cooldown-recovery-auto-post-</text>
</svg>